<svg width="162" height="51" viewBox="0 0 162 51" fill="none" xmlns="http://www.w3.org/2000/svg">
<g clip-path="url(#clip0)">
<path d="M85.1357 13.4658C85.1357 15.2653 83.6741 16.7144 81.8601 16.7144C80.0461 16.7144 78.5855 15.2653 78.5855 13.4658C78.5855 11.6662 79.9963 10.2172 81.8601 10.2172C83.7254 10.2671 85.1357 11.7166 85.1357 13.4658ZM71.6327 20.0139V20.8138C71.6327 20.8138 70.0714 18.8135 66.746 18.8135C61.2548 18.8135 56.9715 22.9624 56.9715 28.7101C56.9715 34.4084 61.2044 38.6067 66.746 38.6067C70.1217 38.6067 71.6327 36.5575 71.6327 36.5575V37.4068C71.6327 37.8068 71.9357 38.1059 72.3383 38.1059H76.4187V19.3118H72.3383C71.9357 19.3133 71.6327 19.6639 71.6327 20.0139ZM71.6327 32.0591C70.8777 33.1591 69.3657 34.1088 67.5523 34.1088C64.328 34.1088 61.8588 32.1095 61.8588 28.7101C61.8588 25.3112 64.328 23.3119 67.5523 23.3119C69.3159 23.3119 70.928 24.3116 71.6327 25.3611V32.0591ZM79.4422 19.3133H84.2785V38.1073H79.4422V19.3133ZM151.691 18.813C148.365 18.813 146.803 20.8133 146.803 20.8133V10.2671H141.967V38.1073H146.048C146.451 38.1073 146.753 37.7573 146.753 37.4073V36.558C146.753 36.558 148.315 38.6072 151.64 38.6072C157.132 38.6072 161.414 34.4099 161.414 28.7116C161.414 23.0133 157.132 18.813 151.691 18.813ZM150.885 34.0583C149.02 34.0583 147.559 33.1096 146.803 32.0091V25.3112C147.559 24.3116 149.171 23.262 150.885 23.262C154.109 23.262 156.578 25.2613 156.578 28.6602C156.578 32.0591 154.109 34.0583 150.885 34.0583ZM139.448 26.9615V38.1573H134.611V27.5107C134.611 24.4124 133.603 23.1621 130.884 23.1621C129.424 23.1621 127.912 23.9121 126.953 25.0121V38.1079H122.117V19.3138H125.945C126.348 19.3138 126.651 19.6639 126.651 20.0139V20.8138C128.062 19.3638 129.925 18.8135 131.789 18.8135C133.906 18.8135 135.669 19.4142 137.08 20.6136C138.792 22.0132 139.448 23.8122 139.448 26.9615ZM110.377 18.813C107.052 18.813 105.49 20.8133 105.49 20.8133V10.2671H100.653V38.1073H104.734C105.137 38.1073 105.44 37.7573 105.44 37.4073V36.558C105.44 36.558 107.002 38.6072 110.326 38.6072C115.818 38.6072 120.101 34.4099 120.101 28.7116C120.151 23.0128 115.869 18.813 110.377 18.813ZM109.57 34.0583C107.706 34.0583 106.246 33.1096 105.49 32.0091V25.3112C106.246 24.3116 107.858 23.262 109.57 23.262C112.796 23.262 115.264 25.2613 115.264 28.6602C115.264 32.0591 112.796 34.0583 109.57 34.0583ZM96.4714 18.813C97.932 18.813 98.688 19.0637 98.688 19.0637V23.5116C98.688 23.5116 94.6575 22.162 92.1389 25.0116V38.1568H87.3015V19.3133H91.3829C91.786 19.3133 92.0875 19.6634 92.0875 20.0134V20.8133C92.9955 19.7632 94.9605 18.813 96.4714 18.813ZM46.2408 36.4077C45.9891 35.808 45.737 35.1584 45.4853 34.6081C45.0817 33.7088 44.6785 32.8585 44.3267 32.0591L44.2763 32.0091C40.7994 24.5113 37.0718 16.9146 33.1414 9.41774L32.9905 9.11714C32.5771 8.33943 32.1742 7.55626 31.782 6.76783C31.2777 5.86755 30.7743 4.91883 29.968 4.01855C28.3559 2.01926 26.0381 0.91925 23.5698 0.91925C21.0502 0.91925 18.7833 2.01927 17.1213 3.91819C16.3654 4.81747 15.8107 5.76719 15.3074 6.66747C14.9142 7.45541 14.5113 8.23856 14.0989 9.01678L13.9474 9.31737C10.0679 16.8142 6.28944 24.4114 2.81302 31.9088L2.7622 32.0081C2.40988 32.809 2.00621 33.6584 1.60305 34.5572C1.35139 35.1074 1.09973 35.7071 0.848076 36.3567C0.192756 38.2057 -0.00908437 39.9554 0.243581 41.7554C0.797734 45.5043 3.31634 48.6521 6.79326 50.0527C8.10339 50.6029 9.46386 50.8526 10.8742 50.8526C11.2773 50.8526 11.7806 50.8027 12.1843 50.7522C13.8473 50.5525 15.5601 50.0032 17.223 49.0535C19.2886 47.9036 21.2536 46.2548 23.4702 43.8556C25.6868 46.2548 27.7021 47.9036 29.7174 49.0535C31.3808 50.0032 33.0931 50.5525 34.7556 50.7522C35.1587 50.8032 35.6631 50.8526 36.0662 50.8526C37.477 50.8526 38.8873 50.6029 40.1466 50.0527C43.6739 48.6521 46.1421 45.4544 46.6968 41.7554C47.0969 40.0063 46.8956 38.2577 46.2408 36.4077ZM23.519 39.0066C20.7981 35.6077 19.0345 32.4091 18.4305 29.7107C18.1788 28.5608 18.128 27.5612 18.2795 26.6614C18.3796 25.8615 18.6826 25.1614 19.0858 24.5617C20.0431 23.213 21.6552 22.3627 23.5195 22.3627C25.3843 22.3627 27.0468 23.1626 27.9538 24.5617C28.3569 25.1614 28.6589 25.862 28.7606 26.6614C28.9111 27.5617 28.8607 28.6107 28.6091 29.7107C28.0026 32.3591 26.239 35.5583 23.519 39.0066ZM43.6205 41.356C43.2682 43.9549 41.5046 46.2049 39.0363 47.2045C37.8273 47.7038 36.5167 47.8541 35.2076 47.7038C33.9483 47.5535 32.688 47.1536 31.3788 46.4046C29.5649 45.404 27.7514 43.8556 25.635 41.5557C28.9599 37.5077 30.9752 33.8082 31.7312 30.5102C32.084 28.9603 32.1348 27.5611 31.9828 26.2609C31.782 25.0116 31.328 23.8617 30.6228 22.862C29.06 20.6121 26.4398 19.3133 23.5185 19.3133C20.5973 19.3133 17.977 20.663 16.4152 22.862C15.71 23.8617 15.256 25.0116 15.0547 26.2609C14.8534 27.5611 14.9032 29.0102 15.3064 30.5102C16.0619 33.8082 18.1275 37.5571 21.4021 41.6056C19.3365 43.905 17.4722 45.4549 15.6582 46.4546C14.3481 47.2045 13.0893 47.6045 11.83 47.7538C10.47 47.9041 9.15936 47.7039 8.00072 47.2545C5.53245 46.2548 3.76883 44.0049 3.4165 41.4059C3.26551 40.1566 3.36567 38.9073 3.86999 37.5077C4.02049 37.0073 4.27315 36.508 4.52481 35.9083C4.87763 35.1084 5.27979 34.2581 5.68345 33.4087L5.73429 33.3094C9.2102 25.8615 12.9383 18.2642 16.8179 10.8673L16.9688 10.5667C17.3725 9.8177 17.7757 9.01778 18.1783 8.2678C18.5815 7.46788 19.0345 6.71789 19.5891 6.06778C20.6471 4.8694 22.0574 4.21878 23.6197 4.21878C25.182 4.21878 26.5923 4.8694 27.6503 6.06778C28.2049 6.71939 28.6579 7.46938 29.061 8.2678C29.4647 9.01778 29.8679 9.8177 30.27 10.5667L30.4215 10.8673C34.2419 18.295 37.9205 25.7937 41.4552 33.3593V33.4092C41.8589 34.2101 42.2112 35.1089 42.6144 35.9098C42.8661 36.5085 43.1182 37.0079 43.2692 37.5082C43.6714 38.8064 43.8224 40.0567 43.6205 41.356Z" fill="#CFCFDE"/>
</g>
<defs>
<clipPath id="clip0">
<rect width="161.323" height="49.9333" fill="white" transform="translate(0.112549 0.9198)"/>
</clipPath>
</defs>
</svg>
