<svg width="194" height="40" viewBox="0 0 194 40" fill="none" xmlns="http://www.w3.org/2000/svg">
<path d="M100.101 19.3433C98.5045 19.3433 97.3536 19.8688 96.1865 20.4042V32.5177C97.3044 32.6246 97.9452 32.6246 99.0057 32.6246C102.838 32.6246 103.363 30.8632 103.363 28.4038V22.6183C103.363 20.8021 102.763 19.3433 100.101 19.3433ZM74.6492 18.6822C71.9902 18.6822 71.3834 20.1473 71.3834 21.9617V22.9812H77.9115V21.9617C77.9115 20.1473 77.3047 18.6822 74.6492 18.6822ZM25.3437 31.2907C25.3437 32.7261 26.0186 33.4716 27.5078 33.4716C29.1054 33.4716 30.0514 32.9489 31.2176 32.4117V29.5383H27.7244C26.0705 29.5383 25.3437 29.8473 25.3437 31.2907ZM124.86 19.3433C122.196 19.3433 121.273 20.8021 121.273 22.6183V29.2464C121.273 31.0671 122.196 32.5303 124.86 32.5303C127.516 32.5303 128.446 31.0671 128.446 29.2464V22.6183C128.445 20.8021 127.515 19.3433 124.86 19.3433ZM12.2911 38.7227H4.4616V19.7035H0.549561V13.15H4.4625V9.21396C4.4625 3.86678 6.67046 0.687927 12.9462 0.687927H18.1712V7.24324H14.9053C12.462 7.24324 12.3009 8.15943 12.3009 9.86877L12.2911 13.1491H18.207L17.5152 19.7026H12.2911V38.7227ZM39.0488 38.7721H32.5234L32.2415 37.1158C29.262 38.7721 26.603 39.0407 24.8488 39.0407C20.0632 39.0407 17.5161 35.8322 17.5161 31.3949C17.5161 26.16 20.4884 24.2917 25.8055 24.2917H31.2176V23.1599C31.2176 20.4877 30.9124 19.7035 26.8178 19.7035H20.1232L20.7774 13.15H28.095C37.079 13.15 39.0488 15.9983 39.0488 23.2129V38.7721ZM61.2386 20.1841C57.178 19.4853 56.0118 19.3317 54.058 19.3317C50.5487 19.3317 49.4881 20.1086 49.4881 23.0997V28.7577C49.4881 31.7488 50.5487 32.5294 54.058 32.5294C56.0118 32.5294 57.178 32.3731 61.2386 31.6716V38.0643C57.6818 38.8646 55.3647 39.0748 53.4064 39.0748C45.0006 39.0748 41.6596 34.6385 41.6596 28.2296V23.6387C41.6596 17.2244 45.0006 12.7799 53.4064 12.7799C55.3647 12.7799 57.6818 12.991 61.2386 13.7949V20.1841ZM85.7401 28.2296H71.3825V28.7577C71.3825 31.7488 72.444 32.5294 75.9524 32.5294C79.1063 32.5294 81.0315 32.3731 85.0849 31.6716V38.0643C81.1756 38.8646 79.1385 39.0748 75.3035 39.0748C66.8968 39.0748 63.5539 34.6385 63.5539 28.2296V22.9803C63.5539 17.3726 66.034 12.7799 74.6483 12.7799C83.2627 12.7799 85.7401 17.3196 85.7401 22.9803V28.2296ZM111.191 28.3508C111.191 34.545 109.427 39.0632 98.7408 39.0632C94.8816 39.0632 92.6181 38.7227 88.3588 38.0652V2.65686L96.1856 1.34633V13.7321C97.8771 13.1015 100.066 12.7808 102.059 12.7808C109.886 12.7808 111.19 16.3028 111.19 21.9626V28.3508H111.191ZM136.281 28.4856C136.281 33.8292 134.083 39.012 124.886 39.012C115.684 39.012 113.445 33.8292 113.445 28.4856V23.3261C113.445 17.9798 115.684 12.7961 124.886 12.7961C134.083 12.7961 136.281 17.9798 136.281 23.3261V28.4856ZM161.353 28.4856C161.353 33.8292 159.152 39.012 149.957 39.012C140.756 39.012 138.516 33.8292 138.516 28.4856V23.3261C138.516 17.9798 140.756 12.7961 149.957 12.7961C159.152 12.7961 161.353 17.9798 161.353 23.3261V28.4856ZM187.084 38.7227H178.6L171.425 26.7017V38.7227H163.595V2.65596L171.425 1.34543V24.5639L178.6 13.15H187.084L179.25 25.6058L187.084 38.7227ZM149.93 19.3433C147.271 19.3433 146.349 20.8021 146.349 22.6183V29.2464C146.349 31.0671 147.271 32.5303 149.93 32.5303C152.586 32.5303 153.526 31.0671 153.526 29.2464V22.6183C153.526 20.8021 152.586 19.3433 149.93 19.3433ZM191.552 34.2369C192.871 34.2369 193.92 35.3157 193.92 36.6631C193.92 38.0311 192.87 39.0982 191.542 39.0982C190.221 39.0982 189.15 38.0311 189.15 36.6631C189.15 35.3157 190.221 34.2369 191.542 34.2369H191.552ZM191.542 34.6142C190.48 34.6142 189.611 35.5313 189.611 36.6631C189.611 37.8155 190.481 38.7209 191.552 38.7209C192.624 38.7317 193.481 37.8155 193.481 36.6739C193.481 35.5322 192.624 34.6142 191.552 34.6142H191.542ZM191.092 38.0751H190.663V35.3678C190.888 35.3364 191.103 35.3049 191.425 35.3049C191.833 35.3049 192.1 35.3912 192.264 35.5088C192.422 35.6283 192.507 35.8107 192.507 36.0684C192.507 36.4259 192.273 36.6406 191.984 36.7277V36.7484C192.219 36.7924 192.379 37.0062 192.434 37.4041C192.496 37.8254 192.562 37.9862 192.604 38.0742H192.154C192.09 37.9862 192.025 37.7392 191.971 37.3826C191.908 37.0385 191.735 36.9092 191.391 36.9092H191.093V38.0751H191.092ZM191.092 36.5768H191.404C191.756 36.5768 192.056 36.4466 192.056 36.1116C192.056 35.8744 191.886 35.6382 191.404 35.6382C191.263 35.6382 191.166 35.649 191.092 35.6589V36.5768Z" fill="#CFCFDE"/>
</svg>
