<svg width="132" height="52" viewBox="0 0 132 52" fill="none" xmlns="http://www.w3.org/2000/svg">
<path d="M104.461 16.8328V0.930969H107.705V14.6005C106.807 15.052 105.584 15.9048 104.461 16.8328ZM98.82 21.6234C99.8184 20.4195 100.842 19.2156 102.065 18.1872V0.930969H98.82V21.6234ZM61.232 34.2646C61.232 38.5034 62.9043 42.5416 65.9742 45.6267C69.0192 48.6866 73.0376 50.3922 77.2806 50.3922C79.0776 50.3922 80.9245 50.016 82.2224 49.3638V46.1032C80.6999 46.7553 78.853 47.1316 77.2806 47.1316C70.342 47.1316 64.5016 41.2624 64.5016 34.2897V31.3551C64.5016 24.3824 70.367 18.5133 77.2806 18.5133C80.7249 18.5133 83.9446 19.8426 86.3406 22.2505C88.7367 24.6583 90.0595 27.8939 90.0595 31.3551V50.4173H93.3041V30.7281C93.1045 26.5645 91.3324 22.6769 88.3373 19.7674C85.3173 16.8579 81.3988 15.2527 77.2806 15.2527C73.0625 15.2527 69.0441 16.9331 65.9742 20.0182C62.9292 23.0782 61.232 27.1163 61.232 31.3802V34.2646ZM109.802 26.4391C111.275 24.9593 113.171 24.1316 115.043 24.1316C119.062 24.1316 122.182 27.2919 122.182 31.305V34.2395C122.182 38.2777 119.037 41.4129 115.043 41.4129C113.097 41.4129 111.225 40.3344 109.752 38.4031C108.454 36.6976 107.606 34.365 107.481 32.2832L104.86 35.5438C105.384 38.0018 106.657 40.3846 108.479 42.04C110.351 43.7455 112.697 44.6986 115.043 44.6986C120.784 44.6986 125.451 40.0084 125.451 34.2646V31.3301C125.451 28.5961 124.353 25.9876 122.356 24.0062C120.36 21.9996 117.764 20.896 115.043 20.896C113.321 20.896 110.601 21.5231 107.356 24.4577C106.482 25.3355 104.436 27.3922 103.188 28.847C101.091 31.1545 98.0713 34.5907 95.4756 38.0771V43.1687C98.3458 39.4566 99.9931 37.3748 102.714 34.2395C105.11 31.3802 108.105 27.944 109.802 26.4391ZM33.1283 20.2941V16.4315C30.1832 14.8513 26.9885 14.1491 22.7454 14.1491C18.4026 14.1491 14.2844 15.7543 11.1645 18.6387C8.01972 21.5482 6.29756 25.3606 6.29756 29.4238V30.4773C6.29756 38.9048 13.0115 45.7521 21.2978 45.7521C28.0118 45.7521 30.7822 43.5449 31.4811 42.8426V33.0356H20.4992V36.2962H28.4361V41.2123H28.4111C27.3878 41.6136 25.2663 42.4664 21.2978 42.4664C18.153 42.4664 15.1829 41.2374 12.9865 38.98C10.7652 36.7226 9.56717 33.7128 9.56717 30.4522V29.3988C9.56717 22.9026 15.6072 17.3846 22.7704 17.3846C27.6873 17.4097 30.6325 18.2374 33.1283 20.2941ZM56.7893 24.1316C58.0123 24.1316 59.0606 24.3323 59.9092 24.7336C60.3085 23.7303 60.7328 22.8775 61.3318 21.8742C60.4583 21.2472 58.3368 20.8459 56.7893 20.8459C50.8741 20.8459 46.4064 25.3355 46.4064 31.305V50.3671H49.6511V31.305C49.6511 27.0912 52.5713 24.1316 56.7893 24.1316ZM0.65686 29.4238V30.4773C0.65686 36.1458 2.80332 41.4129 6.67195 45.3508C10.5406 49.2635 15.732 51.4206 21.2729 51.4206C25.7405 51.4206 29.684 50.4173 33.0285 48.4107C35.774 46.7553 36.997 45.0999 37.0968 44.9495V27.3922H20.4992V30.6529H33.8521V43.9713C32.2797 45.5514 28.5609 48.185 21.2978 48.185C16.5557 48.185 12.1629 46.354 8.91824 43.0432C5.69855 39.7575 3.92647 35.293 3.92647 30.5024V29.4489C3.92647 24.9091 5.94814 20.3944 9.4923 17.0585C13.1113 13.6474 17.8286 11.7663 22.7704 11.7663C27.3878 11.7663 30.5825 12.4686 33.1533 14.0487V10.3617C30.4577 9.20795 27.238 8.70631 22.7454 8.70631C10.7652 8.70631 0.65686 18.1872 0.65686 29.4238ZM87.6385 50.3671V31.305C87.6385 25.4358 83.071 20.8459 77.2306 20.8459C74.5101 20.8459 71.9144 21.9495 69.9177 23.956C67.921 25.9626 66.8228 28.5711 66.8228 31.2799V34.2145C66.8228 39.8829 71.5899 44.6485 77.2057 44.6485C78.7531 44.6485 80.8497 44.2723 82.1475 43.1937V39.8077C80.8746 40.836 79.0526 41.438 77.2057 41.438C73.2123 41.438 70.0674 38.2777 70.0674 34.2646V31.3301C70.0674 27.2919 73.2123 24.1567 77.2057 24.1567C81.2241 24.1567 84.3439 27.317 84.3439 31.3301V50.3922H87.6385V50.3671ZM56.7893 18.4631C58.9857 18.4631 60.9075 18.9397 62.6297 19.9179C63.4284 18.8895 64.252 18.0869 64.876 17.4598C63.054 16.0553 59.9591 15.2025 56.8143 15.2025C52.2967 15.2025 48.2035 16.8328 45.2833 19.8175C42.3881 22.7521 40.7907 26.8404 40.7907 31.3301V50.3922H44.0354V31.3301C44.0104 23.7554 49.2518 18.4631 56.7893 18.4631ZM126.35 19.968C123.305 16.9081 119.286 15.2025 115.043 15.2025C111.948 15.2025 108.854 16.3563 107.131 17.51C103.587 19.8677 100.692 22.4511 95.4506 29.2483V34.1392C99.8933 28.3202 104.086 23.7554 107.281 21.2221C109.378 19.5416 112.348 18.4882 115.043 18.4882C121.982 18.4882 127.822 24.3824 127.822 31.3301V34.2646C127.822 37.7008 126.474 40.9364 124.028 43.3693C121.607 45.7772 118.413 47.1065 115.043 47.1065C109.353 47.1065 104.336 43.1687 102.988 37.8262L100.692 40.6103C102.364 46.2286 108.404 50.3671 115.043 50.3671C119.286 50.3671 123.28 48.6616 126.35 45.6016C129.395 42.5165 131.092 38.5034 131.092 34.2395V31.305C131.092 27.0662 129.395 23.028 126.35 19.968Z" fill="#CFCFDE"/>
</svg>
