<svg width="152" height="41" viewBox="0 0 152 41" fill="none" xmlns="http://www.w3.org/2000/svg">
<g clip-path="url(#clip0)">
<path d="M143.28 19.5213L151.376 40.8142C148.99 40.4757 146.606 40.0516 144.178 39.6696L139.617 27.9045L134.931 38.6984C132.631 38.3164 130.372 38.1892 128.072 37.8925L136.294 19.2681L128.836 0.178955H135.739L139.914 10.8444L144.389 0.178955H151.375L143.28 19.5213ZM123.386 0.178955H117.122V37.0893C119.167 37.2167 121.297 37.3006 123.386 37.5539V0.178955ZM111.711 36.6654C106.003 36.2847 100.293 35.9475 94.4559 35.8188V0.179119H100.846V29.8088C104.511 29.8928 108.174 30.1882 111.711 30.3574V36.6654ZM87.6376 14.6139V20.9625H78.9038V35.3961H72.5995V0.178955H90.4939V6.52751H78.9051V14.6141H87.6389L87.6376 14.6139ZM61.8613 6.52751V35.7348C59.7304 35.7348 57.5586 35.7348 55.4698 35.8188V6.52751H48.8656V0.178955H68.5063V6.52751H61.8613ZM41.9642 21.2998C39.1528 21.2998 35.8288 21.2998 33.4429 21.4285V30.8666C37.1922 30.612 40.9415 30.3167 44.733 30.1895V36.2847L27.0527 37.6826V0.178955H44.7318V6.52751H33.4427V15.0785C35.9146 15.0785 39.7062 14.9513 41.9639 14.9513V21.3011L41.9642 21.2998ZM6.55674 17.7442V39.9242C4.25807 40.1789 2.21157 40.4755 0.0396423 40.8142V0.178955H6.13273L14.44 23.2491V0.178955H20.8316V38.1892C18.5737 38.5712 16.2724 38.6984 13.8442 39.0358L6.55674 17.7442Z" fill="#CFCFDE"/>
</g>
<defs>
<clipPath id="clip0">
<rect width="151.336" height="40.7149" fill="white" transform="translate(0.0396576 0.138245)"/>
</clipPath>
</defs>
</svg>
