<svg width="370" height="110" viewBox="0 0 370 110" fill="none" xmlns="http://www.w3.org/2000/svg">
<g filter="url(#filter0_b)">
<rect width="370" height="110" rx="20" fill="white" fill-opacity="0.8"/>
</g>
<path d="M109.504 49.216C107.84 49.216 106.384 48.864 105.136 48.16C103.904 47.44 102.952 46.424 102.28 45.112C101.624 43.8 101.296 42.272 101.296 40.528C101.296 38.784 101.624 37.264 102.28 35.968C102.952 34.656 103.904 33.648 105.136 32.944C106.384 32.224 107.84 31.864 109.504 31.864C110.64 31.864 111.712 32.04 112.72 32.392C113.728 32.744 114.576 33.24 115.264 33.88L114.232 36.136C113.464 35.528 112.704 35.088 111.952 34.816C111.2 34.528 110.4 34.384 109.552 34.384C107.92 34.384 106.656 34.912 105.76 35.968C104.88 37.024 104.44 38.544 104.44 40.528C104.44 42.528 104.88 44.056 105.76 45.112C106.656 46.168 107.92 46.696 109.552 46.696C110.4 46.696 111.2 46.56 111.952 46.288C112.704 46 113.464 45.552 114.232 44.944L115.264 47.2C114.576 47.84 113.728 48.336 112.72 48.688C111.712 49.04 110.64 49.216 109.504 49.216ZM123.423 49.192C122.223 49.192 121.167 48.944 120.255 48.448C119.359 47.952 118.663 47.24 118.167 46.312C117.671 45.384 117.423 44.304 117.423 43.072C117.423 41.84 117.671 40.768 118.167 39.856C118.663 38.928 119.359 38.216 120.255 37.72C121.167 37.224 122.223 36.976 123.423 36.976C124.623 36.976 125.671 37.224 126.567 37.72C127.479 38.216 128.175 38.928 128.655 39.856C129.151 40.768 129.399 41.84 129.399 43.072C129.399 44.304 129.151 45.384 128.655 46.312C128.175 47.24 127.479 47.952 126.567 48.448C125.671 48.944 124.623 49.192 123.423 49.192ZM123.399 46.864C124.375 46.864 125.119 46.544 125.631 45.904C126.143 45.264 126.399 44.32 126.399 43.072C126.399 41.84 126.143 40.904 125.631 40.264C125.119 39.608 124.383 39.28 123.423 39.28C122.463 39.28 121.719 39.608 121.191 40.264C120.679 40.904 120.423 41.84 120.423 43.072C120.423 44.32 120.679 45.264 121.191 45.904C121.703 46.544 122.439 46.864 123.399 46.864ZM139.172 36.976C140.58 36.976 141.628 37.376 142.316 38.176C143.004 38.976 143.348 40.184 143.348 41.8V49H140.348V41.968C140.348 41.056 140.172 40.392 139.82 39.976C139.484 39.56 138.948 39.352 138.212 39.352C137.348 39.352 136.652 39.624 136.124 40.168C135.612 40.712 135.356 41.44 135.356 42.352V49H132.356V37.264H135.284V39.016C135.684 38.36 136.22 37.856 136.892 37.504C137.564 37.152 138.324 36.976 139.172 36.976ZM158.299 37.264V47.92C158.299 49.76 157.787 51.152 156.763 52.096C155.755 53.04 154.259 53.512 152.275 53.512C151.251 53.512 150.267 53.376 149.323 53.104C148.379 52.848 147.555 52.48 146.851 52L147.691 49.888C149.147 50.768 150.651 51.208 152.203 51.208C154.283 51.208 155.323 50.184 155.323 48.136V46.6C154.971 47.256 154.459 47.768 153.787 48.136C153.115 48.488 152.347 48.664 151.483 48.664C150.459 48.664 149.547 48.424 148.747 47.944C147.963 47.448 147.347 46.76 146.899 45.88C146.451 45 146.227 43.984 146.227 42.832C146.227 41.68 146.443 40.664 146.875 39.784C147.323 38.888 147.947 38.2 148.747 37.72C149.547 37.224 150.459 36.976 151.483 36.976C152.347 36.976 153.115 37.16 153.787 37.528C154.459 37.88 154.971 38.384 155.323 39.04V37.264H158.299ZM152.275 46.336C153.235 46.336 153.979 46.024 154.507 45.4C155.051 44.776 155.323 43.92 155.323 42.832C155.323 41.728 155.051 40.864 154.507 40.24C153.979 39.616 153.235 39.304 152.275 39.304C151.331 39.304 150.587 39.616 150.043 40.24C149.499 40.864 149.227 41.728 149.227 42.832C149.227 43.904 149.499 44.76 150.043 45.4C150.587 46.024 151.331 46.336 152.275 46.336ZM169.614 39.472L167.862 39.64C165.878 39.848 164.886 40.856 164.886 42.664V49H161.886V37.264H164.742V39.328C165.35 37.92 166.606 37.152 168.51 37.024L169.422 36.952L169.614 39.472ZM176.547 36.976C178.195 36.976 179.419 37.376 180.219 38.176C181.019 38.976 181.419 40.208 181.419 41.872V49H178.563V47.2C178.291 47.824 177.859 48.312 177.267 48.664C176.691 49.016 176.019 49.192 175.251 49.192C174.467 49.192 173.755 49.032 173.115 48.712C172.475 48.392 171.971 47.952 171.603 47.392C171.235 46.832 171.051 46.208 171.051 45.52C171.051 44.656 171.267 43.976 171.699 43.48C172.147 42.984 172.867 42.624 173.859 42.4C174.851 42.176 176.219 42.064 177.963 42.064H178.563V41.512C178.563 40.712 178.387 40.136 178.035 39.784C177.699 39.432 177.131 39.256 176.331 39.256C175.707 39.256 175.051 39.368 174.363 39.592C173.691 39.8 173.027 40.096 172.371 40.48L171.531 38.416C172.187 38 172.979 37.656 173.907 37.384C174.835 37.112 175.715 36.976 176.547 36.976ZM175.851 47.032C176.651 47.032 177.299 46.768 177.795 46.24C178.307 45.696 178.563 45 178.563 44.152V43.648H178.131C177.059 43.648 176.227 43.696 175.635 43.792C175.043 43.888 174.619 44.056 174.363 44.296C174.107 44.536 173.979 44.864 173.979 45.28C173.979 45.792 174.155 46.216 174.507 46.552C174.859 46.872 175.307 47.032 175.851 47.032ZM190.948 46.936C191.3 46.936 191.668 46.912 192.052 46.864L191.908 49.096C191.428 49.144 190.988 49.168 190.588 49.168C188.94 49.168 187.724 48.792 186.94 48.04C186.156 47.272 185.764 46.136 185.764 44.632V39.52H183.508V37.264H185.764V33.76H188.764V37.264H191.86V39.52H188.764V44.584C188.764 46.152 189.492 46.936 190.948 46.936ZM205.063 37.264V49H202.135V47.2C201.767 47.84 201.271 48.336 200.647 48.688C200.023 49.024 199.319 49.192 198.535 49.192C195.655 49.192 194.215 47.576 194.215 44.344V37.264H197.215V44.368C197.215 45.2 197.383 45.816 197.719 46.216C198.055 46.616 198.583 46.816 199.303 46.816C200.135 46.816 200.799 46.544 201.295 46C201.807 45.44 202.063 44.704 202.063 43.792V37.264H205.063ZM208.666 49V32.08H211.666V49H208.666ZM220.279 36.976C221.927 36.976 223.151 37.376 223.951 38.176C224.751 38.976 225.151 40.208 225.151 41.872V49H222.295V47.2C222.023 47.824 221.591 48.312 220.999 48.664C220.423 49.016 219.751 49.192 218.983 49.192C218.199 49.192 217.487 49.032 216.847 48.712C216.207 48.392 215.703 47.952 215.335 47.392C214.967 46.832 214.783 46.208 214.783 45.52C214.783 44.656 214.999 43.976 215.431 43.48C215.879 42.984 216.599 42.624 217.591 42.4C218.583 42.176 219.951 42.064 221.695 42.064H222.295V41.512C222.295 40.712 222.119 40.136 221.767 39.784C221.431 39.432 220.863 39.256 220.063 39.256C219.439 39.256 218.783 39.368 218.095 39.592C217.423 39.8 216.759 40.096 216.103 40.48L215.263 38.416C215.919 38 216.711 37.656 217.639 37.384C218.567 37.112 219.447 36.976 220.279 36.976ZM219.583 47.032C220.383 47.032 221.031 46.768 221.527 46.24C222.039 45.696 222.295 45 222.295 44.152V43.648H221.863C220.791 43.648 219.959 43.696 219.367 43.792C218.775 43.888 218.351 44.056 218.095 44.296C217.839 44.536 217.711 44.864 217.711 45.28C217.711 45.792 217.887 46.216 218.239 46.552C218.591 46.872 219.039 47.032 219.583 47.032ZM234.68 46.936C235.032 46.936 235.4 46.912 235.784 46.864L235.64 49.096C235.16 49.144 234.72 49.168 234.32 49.168C232.672 49.168 231.456 48.792 230.672 48.04C229.888 47.272 229.496 46.136 229.496 44.632V39.52H227.24V37.264H229.496V33.76H232.496V37.264H235.592V39.52H232.496V44.584C232.496 46.152 233.224 46.936 234.68 46.936ZM238.02 49V37.264H241.02V49H238.02ZM237.852 31.816H241.164V34.768H237.852V31.816ZM249.945 49.192C248.745 49.192 247.689 48.944 246.777 48.448C245.881 47.952 245.185 47.24 244.689 46.312C244.193 45.384 243.945 44.304 243.945 43.072C243.945 41.84 244.193 40.768 244.689 39.856C245.185 38.928 245.881 38.216 246.777 37.72C247.689 37.224 248.745 36.976 249.945 36.976C251.145 36.976 252.193 37.224 253.089 37.72C254.001 38.216 254.697 38.928 255.177 39.856C255.673 40.768 255.921 41.84 255.921 43.072C255.921 44.304 255.673 45.384 255.177 46.312C254.697 47.24 254.001 47.952 253.089 48.448C252.193 48.944 251.145 49.192 249.945 49.192ZM249.921 46.864C250.897 46.864 251.641 46.544 252.153 45.904C252.665 45.264 252.921 44.32 252.921 43.072C252.921 41.84 252.665 40.904 252.153 40.264C251.641 39.608 250.905 39.28 249.945 39.28C248.985 39.28 248.241 39.608 247.713 40.264C247.201 40.904 246.945 41.84 246.945 43.072C246.945 44.32 247.201 45.264 247.713 45.904C248.225 46.544 248.961 46.864 249.921 46.864ZM265.694 36.976C267.102 36.976 268.15 37.376 268.838 38.176C269.526 38.976 269.87 40.184 269.87 41.8V49H266.87V41.968C266.87 41.056 266.694 40.392 266.342 39.976C266.006 39.56 265.47 39.352 264.734 39.352C263.87 39.352 263.174 39.624 262.646 40.168C262.134 40.712 261.878 41.44 261.878 42.352V49H258.878V37.264H261.806V39.016C262.206 38.36 262.742 37.856 263.414 37.504C264.086 37.152 264.846 36.976 265.694 36.976ZM277.717 49.192C276.677 49.192 275.717 49.064 274.837 48.808C273.973 48.552 273.237 48.184 272.629 47.704L273.469 45.616C274.717 46.528 276.149 46.984 277.765 46.984C278.453 46.984 278.973 46.872 279.325 46.648C279.693 46.424 279.877 46.104 279.877 45.688C279.877 45.336 279.749 45.064 279.493 44.872C279.253 44.68 278.813 44.504 278.173 44.344L276.253 43.912C275.165 43.672 274.357 43.28 273.829 42.736C273.301 42.192 273.037 41.488 273.037 40.624C273.037 39.904 273.237 39.272 273.637 38.728C274.053 38.168 274.621 37.736 275.341 37.432C276.077 37.128 276.925 36.976 277.885 36.976C278.717 36.976 279.517 37.104 280.285 37.36C281.069 37.616 281.757 37.976 282.349 38.44L281.509 40.48C280.293 39.6 279.077 39.16 277.861 39.16C277.205 39.16 276.693 39.28 276.325 39.52C275.957 39.76 275.773 40.096 275.773 40.528C275.773 40.848 275.885 41.112 276.109 41.32C276.349 41.528 276.725 41.688 277.237 41.8L279.229 42.256C280.397 42.512 281.253 42.92 281.797 43.48C282.341 44.024 282.613 44.744 282.613 45.64C282.613 46.728 282.173 47.592 281.293 48.232C280.413 48.872 279.221 49.192 277.717 49.192Z" fill="#595959"/>
<path d="M105.02 79V72.42L99.62 64.9H102.02L106.1 70.6L110.18 64.9H112.48L107.08 72.44V79H105.02ZM116.568 79.18C115.581 79.18 114.728 78.9733 114.008 78.56C113.288 78.1467 112.728 77.5667 112.328 76.82C111.941 76.06 111.748 75.16 111.748 74.12C111.748 73.08 111.941 72.1867 112.328 71.44C112.728 70.68 113.288 70.0933 114.008 69.68C114.728 69.2667 115.581 69.06 116.568 69.06C117.528 69.06 118.368 69.2667 119.088 69.68C119.808 70.0933 120.368 70.68 120.768 71.44C121.168 72.1867 121.368 73.08 121.368 74.12C121.368 75.16 121.168 76.06 120.768 76.82C120.368 77.5667 119.808 78.1467 119.088 78.56C118.368 78.9733 117.528 79.18 116.568 79.18ZM116.568 77.62C117.394 77.62 118.061 77.32 118.568 76.72C119.074 76.12 119.328 75.2533 119.328 74.12C119.328 72.9867 119.074 72.1267 118.568 71.54C118.061 70.94 117.394 70.64 116.568 70.64C115.728 70.64 115.054 70.94 114.548 71.54C114.041 72.1267 113.788 72.9867 113.788 74.12C113.788 75.2533 114.041 76.12 114.548 76.72C115.054 77.32 115.728 77.62 116.568 77.62ZM127.516 79.18C125.156 79.18 123.976 77.8667 123.976 75.24V69.24H125.996V75.26C125.996 76.0467 126.156 76.6267 126.476 77C126.796 77.3733 127.303 77.56 127.996 77.56C128.756 77.56 129.37 77.3067 129.836 76.8C130.316 76.2933 130.556 75.6133 130.556 74.76V69.24H132.576V79H130.616V77.44C130.296 78.0133 129.87 78.4467 129.336 78.74C128.803 79.0333 128.196 79.18 127.516 79.18ZM135.823 79V69.24H137.783V70.98C138.29 69.82 139.343 69.1733 140.943 69.04L141.603 69L141.743 70.72L140.523 70.84C138.75 71.0133 137.863 71.9267 137.863 73.58V79H135.823ZM152.458 79.18C151.778 79.18 151.171 79.0467 150.638 78.78C150.105 78.5133 149.678 78.1533 149.358 77.7C149.051 77.2467 148.898 76.7333 148.898 76.16C148.898 75.44 149.078 74.8733 149.438 74.46C149.811 74.0467 150.418 73.7467 151.258 73.56C152.111 73.3733 153.258 73.28 154.698 73.28H155.378V72.76C155.378 72 155.218 71.4533 154.898 71.12C154.578 70.7867 154.051 70.62 153.318 70.62C152.758 70.62 152.198 70.7067 151.638 70.88C151.078 71.04 150.505 71.3 149.918 71.66L149.298 70.24C149.805 69.88 150.438 69.5933 151.198 69.38C151.958 69.1667 152.685 69.06 153.378 69.06C154.711 69.06 155.698 69.38 156.338 70.02C156.978 70.6467 157.298 71.6333 157.298 72.98V79H155.398V77.38C155.158 77.94 154.785 78.38 154.278 78.7C153.771 79.02 153.165 79.18 152.458 79.18ZM152.858 77.74C153.578 77.74 154.178 77.4867 154.658 76.98C155.138 76.4733 155.378 75.8333 155.378 75.06V74.52H154.718C153.745 74.52 152.978 74.5667 152.418 74.66C151.871 74.7533 151.478 74.9133 151.238 75.14C151.011 75.3533 150.898 75.6533 150.898 76.04C150.898 76.5467 151.071 76.96 151.418 77.28C151.765 77.5867 152.245 77.74 152.858 77.74ZM164.2 79.18C163.347 79.18 162.593 78.98 161.94 78.58C161.3 78.1667 160.8 77.58 160.44 76.82C160.08 76.06 159.9 75.16 159.9 74.12C159.9 73.08 160.08 72.1867 160.44 71.44C160.8 70.68 161.3 70.0933 161.94 69.68C162.58 69.2667 163.333 69.06 164.2 69.06C164.933 69.06 165.587 69.22 166.16 69.54C166.733 69.86 167.16 70.2933 167.44 70.84V64.9H169.46V79H167.48V77.3C167.2 77.8867 166.767 78.3467 166.18 78.68C165.607 79.0133 164.947 79.18 164.2 79.18ZM164.72 77.62C165.547 77.62 166.213 77.32 166.72 76.72C167.227 76.12 167.48 75.2533 167.48 74.12C167.48 72.9867 167.227 72.1267 166.72 71.54C166.213 70.94 165.547 70.64 164.72 70.64C163.88 70.64 163.207 70.94 162.7 71.54C162.193 72.1267 161.94 72.9867 161.94 74.12C161.94 75.2533 162.193 76.12 162.7 76.72C163.207 77.32 163.88 77.62 164.72 77.62ZM172.737 79V69.24H174.697V70.82C174.99 70.26 175.397 69.8267 175.917 69.52C176.437 69.2133 177.043 69.06 177.737 69.06C179.23 69.06 180.197 69.7133 180.637 71.02C180.943 70.4067 181.383 69.9267 181.957 69.58C182.53 69.2333 183.183 69.06 183.917 69.06C186.103 69.06 187.197 70.3667 187.197 72.98V79H185.177V73.08C185.177 72.2533 185.03 71.6467 184.737 71.26C184.457 70.8733 183.99 70.68 183.337 70.68C182.603 70.68 182.023 70.94 181.597 71.46C181.17 71.9667 180.957 72.66 180.957 73.54V79H178.937V73.08C178.937 72.2533 178.797 71.6467 178.517 71.26C178.237 70.8733 177.77 70.68 177.117 70.68C176.383 70.68 175.803 70.94 175.377 71.46C174.963 71.9667 174.757 72.66 174.757 73.54V79H172.737ZM190.241 66.98V64.88H192.601V66.98H190.241ZM190.421 79V69.24H192.441V79H190.421ZM199.104 79.18C198.304 79.18 197.557 79.08 196.864 78.88C196.171 78.6667 195.591 78.3733 195.124 78L195.704 76.64C196.197 76.9867 196.737 77.2533 197.324 77.44C197.924 77.6267 198.524 77.72 199.124 77.72C199.831 77.72 200.364 77.5933 200.724 77.34C201.084 77.0867 201.264 76.7467 201.264 76.32C201.264 75.9733 201.144 75.7067 200.904 75.52C200.664 75.32 200.304 75.1667 199.824 75.06L197.924 74.68C196.244 74.3333 195.404 73.4667 195.404 72.08C195.404 71.16 195.771 70.4267 196.504 69.88C197.237 69.3333 198.197 69.06 199.384 69.06C200.064 69.06 200.711 69.16 201.324 69.36C201.951 69.56 202.471 69.86 202.884 70.26L202.304 71.62C201.904 71.2733 201.444 71.0067 200.924 70.82C200.404 70.6333 199.891 70.54 199.384 70.54C198.691 70.54 198.164 70.6733 197.804 70.94C197.444 71.1933 197.264 71.54 197.264 71.98C197.264 72.6467 197.704 73.0733 198.584 73.26L200.484 73.64C201.351 73.8133 202.004 74.1067 202.444 74.52C202.897 74.9333 203.124 75.4933 203.124 76.2C203.124 77.1333 202.757 77.8667 202.024 78.4C201.291 78.92 200.317 79.18 199.104 79.18ZM209.192 79.18C208.392 79.18 207.645 79.08 206.952 78.88C206.258 78.6667 205.678 78.3733 205.212 78L205.792 76.64C206.285 76.9867 206.825 77.2533 207.412 77.44C208.012 77.6267 208.612 77.72 209.212 77.72C209.918 77.72 210.452 77.5933 210.812 77.34C211.172 77.0867 211.352 76.7467 211.352 76.32C211.352 75.9733 211.232 75.7067 210.992 75.52C210.752 75.32 210.392 75.1667 209.912 75.06L208.012 74.68C206.332 74.3333 205.492 73.4667 205.492 72.08C205.492 71.16 205.858 70.4267 206.592 69.88C207.325 69.3333 208.285 69.06 209.472 69.06C210.152 69.06 210.798 69.16 211.412 69.36C212.038 69.56 212.558 69.86 212.972 70.26L212.392 71.62C211.992 71.2733 211.532 71.0067 211.012 70.82C210.492 70.6333 209.978 70.54 209.472 70.54C208.778 70.54 208.252 70.6733 207.892 70.94C207.532 71.1933 207.352 71.54 207.352 71.98C207.352 72.6467 207.792 73.0733 208.672 73.26L210.572 73.64C211.438 73.8133 212.092 74.1067 212.532 74.52C212.985 74.9333 213.212 75.4933 213.212 76.2C213.212 77.1333 212.845 77.8667 212.112 78.4C211.378 78.92 210.405 79.18 209.192 79.18ZM215.679 66.98V64.88H218.039V66.98H215.679ZM215.859 79V69.24H217.879V79H215.859ZM225.362 79.18C224.376 79.18 223.522 78.9733 222.802 78.56C222.082 78.1467 221.522 77.5667 221.122 76.82C220.736 76.06 220.542 75.16 220.542 74.12C220.542 73.08 220.736 72.1867 221.122 71.44C221.522 70.68 222.082 70.0933 222.802 69.68C223.522 69.2667 224.376 69.06 225.362 69.06C226.322 69.06 227.162 69.2667 227.882 69.68C228.602 70.0933 229.162 70.68 229.562 71.44C229.962 72.1867 230.162 73.08 230.162 74.12C230.162 75.16 229.962 76.06 229.562 76.82C229.162 77.5667 228.602 78.1467 227.882 78.56C227.162 78.9733 226.322 79.18 225.362 79.18ZM225.362 77.62C226.189 77.62 226.856 77.32 227.362 76.72C227.869 76.12 228.122 75.2533 228.122 74.12C228.122 72.9867 227.869 72.1267 227.362 71.54C226.856 70.94 226.189 70.64 225.362 70.64C224.522 70.64 223.849 70.94 223.342 71.54C222.836 72.1267 222.582 72.9867 222.582 74.12C222.582 75.2533 222.836 76.12 223.342 76.72C223.849 77.32 224.522 77.62 225.362 77.62ZM232.831 79V69.24H234.791V70.86C235.124 70.2733 235.578 69.8267 236.151 69.52C236.738 69.2133 237.391 69.06 238.111 69.06C240.418 69.06 241.571 70.3667 241.571 72.98V79H239.551V73.1C239.551 72.26 239.384 71.6467 239.051 71.26C238.731 70.8733 238.224 70.68 237.531 70.68C236.718 70.68 236.064 70.94 235.571 71.46C235.091 71.9667 234.851 72.64 234.851 73.48V79H232.831ZM254.708 79.18C253.708 79.18 252.842 78.9733 252.108 78.56C251.388 78.1333 250.828 77.54 250.428 76.78C250.028 76.0067 249.828 75.1 249.828 74.06C249.828 72.5133 250.268 71.2933 251.148 70.4C252.028 69.5067 253.215 69.06 254.708 69.06C255.322 69.06 255.928 69.1667 256.528 69.38C257.128 69.5933 257.622 69.8867 258.008 70.26L257.368 71.68C256.995 71.3333 256.582 71.08 256.128 70.92C255.688 70.7467 255.268 70.66 254.868 70.66C253.922 70.66 253.188 70.96 252.668 71.56C252.162 72.1467 251.908 72.9867 251.908 74.08C251.908 75.1733 252.162 76.0333 252.668 76.66C253.188 77.2733 253.922 77.58 254.868 77.58C255.268 77.58 255.688 77.5 256.128 77.34C256.582 77.1667 256.995 76.9067 257.368 76.56L258.008 78C257.622 78.36 257.122 78.6467 256.508 78.86C255.908 79.0733 255.308 79.18 254.708 79.18ZM264.189 79.18C263.202 79.18 262.349 78.9733 261.629 78.56C260.909 78.1467 260.349 77.5667 259.949 76.82C259.562 76.06 259.369 75.16 259.369 74.12C259.369 73.08 259.562 72.1867 259.949 71.44C260.349 70.68 260.909 70.0933 261.629 69.68C262.349 69.2667 263.202 69.06 264.189 69.06C265.149 69.06 265.989 69.2667 266.709 69.68C267.429 70.0933 267.989 70.68 268.389 71.44C268.789 72.1867 268.989 73.08 268.989 74.12C268.989 75.16 268.789 76.06 268.389 76.82C267.989 77.5667 267.429 78.1467 266.709 78.56C265.989 78.9733 265.149 79.18 264.189 79.18ZM264.189 77.62C265.016 77.62 265.682 77.32 266.189 76.72C266.696 76.12 266.949 75.2533 266.949 74.12C266.949 72.9867 266.696 72.1267 266.189 71.54C265.682 70.94 265.016 70.64 264.189 70.64C263.349 70.64 262.676 70.94 262.169 71.54C261.662 72.1267 261.409 72.9867 261.409 74.12C261.409 75.2533 261.662 76.12 262.169 76.72C262.676 77.32 263.349 77.62 264.189 77.62ZM271.698 79V69.24H273.658V70.82C273.951 70.26 274.358 69.8267 274.878 69.52C275.398 69.2133 276.004 69.06 276.698 69.06C278.191 69.06 279.158 69.7133 279.598 71.02C279.904 70.4067 280.344 69.9267 280.918 69.58C281.491 69.2333 282.144 69.06 282.878 69.06C285.064 69.06 286.158 70.3667 286.158 72.98V79H284.138V73.08C284.138 72.2533 283.991 71.6467 283.698 71.26C283.418 70.8733 282.951 70.68 282.298 70.68C281.564 70.68 280.984 70.94 280.558 71.46C280.131 71.9667 279.918 72.66 279.918 73.54V79H277.898V73.08C277.898 72.2533 277.758 71.6467 277.478 71.26C277.198 70.8733 276.731 70.68 276.078 70.68C275.344 70.68 274.764 70.94 274.338 71.46C273.924 71.9667 273.718 72.66 273.718 73.54V79H271.698ZM289.382 82.6V69.24H291.362V70.9C291.642 70.34 292.068 69.8933 292.642 69.56C293.215 69.2267 293.875 69.06 294.622 69.06C295.488 69.06 296.242 69.2667 296.882 69.68C297.535 70.0933 298.035 70.68 298.382 71.44C298.742 72.1867 298.922 73.08 298.922 74.12C298.922 75.16 298.742 76.06 298.382 76.82C298.035 77.58 297.535 78.1667 296.882 78.58C296.242 78.98 295.488 79.18 294.622 79.18C293.902 79.18 293.255 79.0267 292.682 78.72C292.122 78.4 291.695 77.9667 291.402 77.42V82.6H289.382ZM294.122 77.62C294.962 77.62 295.628 77.32 296.122 76.72C296.628 76.12 296.882 75.2533 296.882 74.12C296.882 72.9867 296.628 72.1267 296.122 71.54C295.628 70.94 294.962 70.64 294.122 70.64C293.282 70.64 292.608 70.94 292.102 71.54C291.608 72.1267 291.362 72.9867 291.362 74.12C291.362 75.2533 291.608 76.12 292.102 76.72C292.608 77.32 293.282 77.62 294.122 77.62ZM304.778 79.18C303.711 79.18 302.911 78.88 302.378 78.28C301.858 77.68 301.598 76.8 301.598 75.64V64.9H303.618V75.52C303.618 76.84 304.158 77.5 305.238 77.5C305.398 77.5 305.545 77.4933 305.678 77.48C305.825 77.4667 305.971 77.44 306.118 77.4L306.078 79.02C305.625 79.1267 305.191 79.18 304.778 79.18ZM312.594 79.18C310.994 79.18 309.734 78.7333 308.814 77.84C307.894 76.9333 307.434 75.7 307.434 74.14C307.434 73.14 307.634 72.26 308.034 71.5C308.447 70.7267 309.014 70.1267 309.734 69.7C310.454 69.2733 311.28 69.06 312.214 69.06C313.56 69.06 314.62 69.4933 315.394 70.36C316.167 71.2133 316.554 72.3933 316.554 73.9V74.58H309.394C309.54 76.6067 310.614 77.62 312.614 77.62C313.174 77.62 313.72 77.5333 314.254 77.36C314.8 77.1867 315.314 76.9 315.794 76.5L316.394 77.9C315.954 78.3 315.387 78.6133 314.694 78.84C314 79.0667 313.3 79.18 312.594 79.18ZM312.294 70.48C311.454 70.48 310.787 70.74 310.294 71.26C309.8 71.78 309.5 72.4733 309.394 73.34H314.854C314.814 72.4333 314.574 71.7333 314.134 71.24C313.694 70.7333 313.08 70.48 312.294 70.48ZM323.296 79.18C322.07 79.18 321.156 78.8667 320.556 78.24C319.956 77.6133 319.656 76.7067 319.656 75.52V70.8H317.756V69.24H319.656V66.3H321.676V69.24H324.696V70.8H321.676V75.36C321.676 76.0667 321.823 76.6 322.116 76.96C322.423 77.32 322.916 77.5 323.596 77.5C323.81 77.5 324.016 77.48 324.216 77.44C324.416 77.3867 324.616 77.3267 324.816 77.26L325.136 78.78C324.936 78.9 324.656 78.9933 324.296 79.06C323.95 79.14 323.616 79.18 323.296 79.18ZM331.323 79.18C329.723 79.18 328.463 78.7333 327.543 77.84C326.623 76.9333 326.163 75.7 326.163 74.14C326.163 73.14 326.363 72.26 326.763 71.5C327.177 70.7267 327.743 70.1267 328.463 69.7C329.183 69.2733 330.01 69.06 330.943 69.06C332.29 69.06 333.35 69.4933 334.123 70.36C334.897 71.2133 335.283 72.3933 335.283 73.9V74.58H328.123C328.27 76.6067 329.343 77.62 331.343 77.62C331.903 77.62 332.45 77.5333 332.983 77.36C333.53 77.1867 334.043 76.9 334.523 76.5L335.123 77.9C334.683 78.3 334.117 78.6133 333.423 78.84C332.73 79.0667 332.03 79.18 331.323 79.18ZM331.023 70.48C330.183 70.48 329.517 70.74 329.023 71.26C328.53 71.78 328.23 72.4733 328.123 73.34H333.583C333.543 72.4333 333.303 71.7333 332.863 71.24C332.423 70.7333 331.81 70.48 331.023 70.48ZM341.606 79.18C340.752 79.18 339.999 78.98 339.346 78.58C338.706 78.1667 338.206 77.58 337.846 76.82C337.486 76.06 337.306 75.16 337.306 74.12C337.306 73.08 337.486 72.1867 337.846 71.44C338.206 70.68 338.706 70.0933 339.346 69.68C339.986 69.2667 340.739 69.06 341.606 69.06C342.339 69.06 342.992 69.22 343.566 69.54C344.139 69.86 344.566 70.2933 344.846 70.84V64.9H346.866V79H344.886V77.3C344.606 77.8867 344.172 78.3467 343.586 78.68C343.012 79.0133 342.352 79.18 341.606 79.18ZM342.126 77.62C342.952 77.62 343.619 77.32 344.126 76.72C344.632 76.12 344.886 75.2533 344.886 74.12C344.886 72.9867 344.632 72.1267 344.126 71.54C343.619 70.94 342.952 70.64 342.126 70.64C341.286 70.64 340.612 70.94 340.106 71.54C339.599 72.1267 339.346 72.9867 339.346 74.12C339.346 75.2533 339.599 76.12 340.106 76.72C340.612 77.32 341.286 77.62 342.126 77.62Z" fill="#545567"/>
<rect x="26" y="30" width="50" height="50" rx="8" fill="#F88C3D"/>
<path d="M64.9285 44.2857H37.0714L51 55.7586L65.086 44.3179C65.0345 44.3028 64.9818 44.2921 64.9285 44.2857Z" fill="white"/>
<path d="M51.676 57.9742C51.2813 58.2975 50.7133 58.2975 50.3186 57.9742L36 46.1778V64.6428C36 65.2346 36.4797 65.7143 37.0714 65.7143H64.9285C65.5203 65.7143 66 65.2346 66 64.6428V46.3364L51.676 57.9742Z" fill="white"/>
<defs>
<filter id="filter0_b" x="-20" y="-20" width="410" height="150" filterUnits="userSpaceOnUse" color-interpolation-filters="sRGB">
<feFlood flood-opacity="0" result="BackgroundImageFix"/>
<feGaussianBlur in="BackgroundImage" stdDeviation="10"/>
<feComposite in2="SourceAlpha" operator="in" result="effect1_backgroundBlur"/>
<feBlend mode="normal" in="SourceGraphic" in2="effect1_backgroundBlur" result="shape"/>
</filter>
</defs>
</svg>
